<?xml version="1.0" encoding="utf-8"?>
<!-- Generator: Adobe Illustrator 27.5.0, SVG Export Plug-In . SVG Version: 6.00 Build 0)  -->
<svg version="1.1" id="图层_1" xmlns="http://www.w3.org/2000/svg" xmlns:xlink="http://www.w3.org/1999/xlink" x="0px" y="0px"
	 viewBox="0 0 1024 1024" style="enable-background:new 0 0 1024 1024;" xml:space="preserve">
<style type="text/css">
	.st0{fill:none;}
	.st1{fill:#1047b9;fill-opacity:0.2;}
	.st2{fill:#231815;}
	.st3{fill:#040000;}
	.st4{fill:#FFFFFF;}
</style>
<path class="st0" d="M0,0h1024v1024H0V0z"/>
<g>
	<path class="st1" d="M856.1,689.9c-2.2,0.6-4.6-0.1-6.2-1.8s-2.1-4.1-1.5-6.3c0.7-2.2,2.5-3.9,4.8-4.3c1.8-0.4,34.1-7.6,62,5.9
		c54.7-57.8,70.4-127.6,16.5-196.6c-175.9-225.6,49-149.2-123-347C718.3,35.6,582.3,31.2,468,67.6c4.9,13.5,6.6,29.3,0.4,46.2
		c-1.2,3.3-4.9,5-8.2,3.8c-3.3-1.2-5-4.9-3.8-8.2c5-13.5,3.4-26.4-0.7-37.7c-97.3,34-176.6,96.8-194.3,150.5
		c-14.7,44.5-49.1,74.3-72.5,94.8c-37.2,32.6-76.3,55.1-85.1,115.1c-2.8,19-4.5,35.8-4.4,51.4c17.8,2.2,38.3,9.6,51.8,29.8
		c0.9,1.4,1.3,3.1,1,4.8c-0.3,1.7-1.3,3.1-2.7,4.1c-2.9,2-6.9,1.2-8.9-1.8c-10.2-15.4-26.1-21.6-40.6-23.7
		c5.3,66.4,50.2,116.8,200.4,244.4c162.9,138.4,474.6,76.4,605-48C882.3,684.1,856.5,689.8,856.1,689.9z"/>
</g>
<path class="st2" d="M303.9,172.1c1.7,2.1,2.9,4.6,3.5,7.3c1.9,8.8-3.9,16.5-4.1,16.8c-0.7,0.9-2,1.1-3,0.4s-1.1-2.1-0.4-3
	c0-0.1,4.8-6.5,3.3-13.3c-1-4.4-4.3-8.2-10-11.2c-3.4-1.8-5.9-2.1-7.4-0.7c-3.8,3.3-3.1,15.8,0,23.9c0.5,1.3,0.9,2.2,1.2,3l1.7,0.6
	c0.8,0.3,1.3,1.1,1.3,1.9c0.1,3-1.4,3.8-2.2,3.9c-1.6,0.3-2.7-0.7-3.9-3.1c-1-0.4-2.3-0.8-3.7-1.2c-13.8-4.3-24.2-4.8-28.5-1.3
	c-2,1.6-2.8,4.2-2.3,7.9c0.4,4.2,2.5,8,5.9,10.5c11.5,8.7,35.4,4.9,35.6,4.8c1.2-0.2,2.3,0.6,2.5,1.8c0.2,1.2-0.6,2.3-1.8,2.5
	c-1,0.2-25.9,4.2-38.9-5.7c-4.3-3.2-7.1-8.1-7.6-13.4c-0.6-5.2,0.7-9.1,3.9-11.7c7-5.8,21.5-2.9,32.5,0.5h0.2
	c-2.7-7.4-5-22.8,1.3-28.3c2.1-1.8,5.9-3.3,12.2,0.2C298.5,166.9,301.5,169.3,303.9,172.1z"/>
<path class="st3" d="M290.8,241.4c0.5,0.6,0.6,1.4,0.4,2.1s-0.9,1.2-1.6,1.4l-64.6,13c-1.1,0.2-2.3-0.5-2.5-1.7
	c-0.2-1.2,0.5-2.3,1.7-2.5l64.6-13C289.5,240.5,290.3,240.8,290.8,241.4z"/>
<path class="st3" d="M317.2,142.2c0.1,0.2,0.2,0.4,0.3,0.6l11.7,30.7c0.2,0.5,0.2,1.1,0,1.6c-0.2,0.5-0.7,0.9-1.2,1.1
	c-1.1,0.4-2.3-0.1-2.8-1.2l-11.7-30.7c-0.4-1,0-2.1,0.9-2.6C315.4,141.1,316.6,141.4,317.2,142.2z"/>
<path class="st3" d="M297.9,259.9c0.7,0.9,0.6,2.1-0.2,2.9l-18.3,18.1c-0.8,0.8-2.2,0.8-3,0c-0.4-0.4-0.6-0.9-0.6-1.5
	s0.2-1.1,0.6-1.5l18.3-18.1c0.8-0.8,2.2-0.8,3,0C297.8,259.8,297.8,259.9,297.9,259.9z"/>
<path class="st3" d="M781.7,919.1c0,30.9-96.4,55.9-215.4,55.9s-215.4-25-215.4-55.9s96.4-55.9,215.4-55.9S781.7,888.2,781.7,919.1z
	"/>
<path class="st3" d="M566.3,977.1c-122,0-217.5-25.5-217.5-58.1S444.3,861,566.3,861s217.5,25.5,217.5,58.1S688.2,977.1,566.3,977.1
	z M566.3,865.2c-115.6,0-213.2,24.6-213.2,53.8s97.7,53.8,213.2,53.8s213.2-24.6,213.2-53.8S681.9,865.2,566.3,865.2z"/>
<path class="st4" d="M521.6,503.4h69.3c8.3,0,15,6.7,15,15v397.7c0,10.5-8.5,19.1-19.1,19.1h-45c-19.5,0-35.3-15.8-35.3-35.3V518.4
	c0-4,1.6-7.9,4.4-10.7C513.7,504.9,517.5,503.4,521.6,503.4z"/>
<path class="st3" d="M588.7,937.3h-65c-10.6,0-19.2-8.7-19.3-19.3V503.4c0-1.2,0.9-2.1,2.1-2.1h99.3c1.2,0,2.1,0.9,2.1,2.1V918
	C608,928.7,599.3,937.3,588.7,937.3z M508.7,505.5V918c0,8.3,6.8,15,15,15h65c8.3,0,15-6.7,15-15V505.5H508.7z"/>
<path class="st4" d="M560,503.4h45.8l0,0v414.8c0,9.3-7.6,16.9-16.9,16.9h-29l0,0V503.4L560,503.4z"/>
<path class="st3" d="M588.7,937.3H560c-0.6,0-1.1-0.2-1.5-0.6c-0.4-0.4-0.6-0.9-0.6-1.5V503.4c0-1.2,1-2.1,2.1-2.1h45.8
	c1.2,0,2.1,0.9,2.1,2.1V918C607.9,928.6,599.3,937.3,588.7,937.3z M562.1,933h26.5c8.3,0,15-6.7,15-15V505.5h-41.6V933z"/>
<path class="st3" d="M724.5,638c-7.8,0-17-1.5-27.7-5.5c-15.8-5.9-17.8-15.1-17-21.2c-30.6-8.9-72.3-40-74.5-41.7
	c-0.9-0.7-1-2-0.3-2.9c0.7-0.9,1.9-1.1,2.9-0.5c0.5,0.4,43.3,32.3,73,41.1c4.2-11.5,19.1-22.1,27-19.3c2.7,0.9,6.7,4.1,3.1,14.7
	c-1.4,4.8-5.2,8.6-10,10c-4.6,1.5-10.5,1.2-17-0.3c-0.7,6.8,4.2,12.3,14.4,16.1c43.2,16.2,59.3-9.4,60-10.5c0.6-1,1.9-1.3,2.9-0.7
	c1,0.6,1.3,1.9,0.7,2.9C761.9,620.4,750.9,638,724.5,638z M685,608.3c5.7,1.3,10.7,1.5,14.7,0.3c3.5-1,6.3-3.8,7.3-7.3
	c0.8-2.5,2.4-8.3-0.5-9.4C701.7,590.3,688.8,598.3,685,608.3z"/>
<path class="st3" d="M664.4,246.9c0,0,93.5-17.6,98.8,56.4c5.4,75.3,20.8,154,31.7,202.6c2.7,12,0,24.6-7.3,34.5
	c-7.3,9.9-18.6,16.1-30.9,17l-62.5,4.8L664.4,246.9z"/>
<path class="st3" d="M694.1,564.4c-1.1,0-2-0.8-2.1-1.9l-29.8-315.3c-0.1-1.1,0.6-2.1,1.7-2.3c2-0.4,49.7-9,79.2,13.7
	c13.3,10.2,20.7,25.2,22.1,44.6c5.3,73.8,20.1,150.8,31.7,202.3c2.8,12.6,0,25.8-7.7,36.2c-7.7,10.4-19.5,16.9-32.4,17.9l-62.5,4.8
	L694.1,564.4z M666.7,248.7L696.1,560l60.4-4.7c11.7-0.9,22.4-6.8,29.3-16.2c7-9.4,9.5-21.3,7-32.8
	c-11.6-51.7-26.4-128.8-31.7-202.9c-1.3-18.1-8.2-32.1-20.5-41.6C715.8,242.8,675.9,247.3,666.7,248.7z"/>
<path class="st4" d="M384.9,270.7l279.5-23.8c11.4-1,22.7,3.2,30.7,11.3c8,8.2,12,19.5,10.8,30.9c-6.5,62.8-15,178.2-3.2,273.1
	l-402.1,15.5c-11.5,0.5-22.6-4.3-30.3-12.9c-7.7-8.6-11.1-20.2-9.4-31.6c7-45.7,18.3-117.1,28.7-175.7
	C298.1,310.4,337.1,274.8,384.9,270.7z"/>
<path class="st3" d="M299.2,579.9c-11.9,0-23.2-5.2-30.9-14.2s-11.1-21-9.3-32.8c7.4-48.3,18.4-118,28.7-175.7
	c8.6-48.1,48.4-84.4,97.1-88.6l0.2,2.1l-0.2-2.1l279.5-23.8c12-1,23.9,3.3,32.4,12c8.5,8.6,12.7,20.6,11.4,32.6
	c-6.3,60.9-15.1,177.3-3.2,272.6c0.1,0.6-0.1,1.2-0.5,1.6c-0.4,0.5-0.9,0.7-1.5,0.8l-402.1,15.5
	C300.2,579.8,299.7,579.9,299.2,579.9z M667.7,248.9c-1,0-2.1,0-3.1,0.1L385,272.8c-46.7,4-84.9,38.9-93.2,85.1
	c-10.3,57.7-21.3,127.4-28.7,175.6c-1.6,10.8,1.6,21.7,8.8,29.8c7.2,8.1,17.8,12.6,28.6,12.2l399.8-15.4
	c-11.6-95.3-2.8-210.7,3.4-271.3c1-10.2-2.3-20.4-9.2-28C687.7,253.2,677.9,248.9,667.7,248.9L667.7,248.9z"/>
<path class="st3" d="M314.4,363.7l328-25.9l-8.6,43.1l-328,17.3L314.4,363.7z"/>
<path class="st3" d="M305.8,400.4c-0.7,0-1.3-0.3-1.7-0.8c-0.4-0.5-0.5-1.2-0.4-1.8l8.6-34.5c0.2-0.9,1-1.5,1.9-1.6l328-25.9
	c0.7,0,1.3,0.2,1.8,0.7c0.5,0.5,0.6,1.2,0.5,1.8l-8.6,43.2c-0.2,1-1,1.7-2,1.7l-328,17.3H305.8z M316.1,365.7l-7.6,30.3L632,379
	l7.8-38.8L316.1,365.7z"/>
<path class="st4" d="M625.1,363.7c0,0-55.7,138.1-47.7,241.7L219.5,614c0,0,47.7-189.9,127.2-233L625.1,363.7z"/>
<path class="st3" d="M219.5,616.2c-0.7,0-1.3-0.3-1.7-0.8c-0.4-0.5-0.6-1.2-0.4-1.8c9.1-34.2,20.5-67.8,33.9-100.6
	c29.2-70.6,61-115.6,94.4-133.8c0.3-0.1,0.6-0.2,0.9-0.2L625,361.6c0.7-0.1,1.4,0.3,1.9,0.9c0.4,0.6,0.5,1.4,0.2,2.1
	c-0.5,1.4-55.4,138.8-47.6,240.7c0,0.6-0.1,1.2-0.5,1.6c-0.4,0.4-1,0.7-1.5,0.7L219.5,616.2L219.5,616.2z M347.3,383.1
	C274.9,423,228.5,588.5,222.2,611.9l352.8-8.5c-6.4-94,38.7-216.2,46.8-237.2L347.3,383.1z"/>
<path class="st4" d="M625.1,355.1c0,0-69,189.9-120.8,215.8H141.8c0,0,146.7-112.2,181.2-189.9L625.1,355.1z"/>
<path class="st3" d="M504.3,573H141.8c-0.9,0-1.7-0.6-2-1.5c-0.3-0.9,0-1.8,0.7-2.4c1.5-1.1,146.7-112.7,180.6-189
	c0.3-0.7,1-1.2,1.8-1.3L624.9,353c0.7-0.1,1.5,0.2,1.9,0.8c0.4,0.6,0.6,1.3,0.3,2c-2.8,7.8-69.9,191-121.9,216.9
	C504.9,572.9,504.6,573,504.3,573z M148,568.7h355.8c46.8-24.2,108.9-186.5,118.2-211.2L324.5,383
	C292.9,452.1,173.7,548.5,148,568.7z"/>
<path class="st3" d="M301.1,469.5c-0.8,0-1.6-0.5-1.9-1.2c-0.4-0.8-0.2-1.6,0.3-2.3c6.9-8.1,30.2-34.1,38.9-30.9
	c1.6,0.6,3.4,2.2,3.4,6.6c0,10.4,10.8,19.2,21.2,21.7c6.5,1.5,11.5,0.3,13.3-3.4c6.7-13.4,115.3-8.7,137-7.6c1.2,0.1,2.1,1.1,2,2.2
	c0,0.6-0.2,1.1-0.7,1.5c-0.4,0.4-1,0.6-1.6,0.5c-62.5-3.1-129.3-2-132.9,5.2c-2.8,5.5-9.5,7.6-18.1,5.6
	c-12.1-2.8-24.5-13.3-24.5-25.8c0-1.6-0.3-2.5-0.7-2.6c-4-1.4-20.8,14.2-34.2,29.7C302.3,469.2,301.7,469.5,301.1,469.5z"/>
<path class="st3" d="M455.3,514.5H307.5c-1.1-0.1-2-1-2-2.1c0-1.1,0.9-2.1,2-2.1h147.8c1.1,0.1,2,1,2,2.1
	C457.3,513.5,456.5,514.4,455.3,514.5z"/>
<path class="st3" d="M584.8,897.7H562c-0.8,0-1.6-0.3-2-1c-0.4-0.7-0.4-1.5,0-2.2c0.4-0.7,1.2-1.1,2-1h22.8c1.1,0.1,2,1,2,2.1
	C586.8,896.7,585.9,897.6,584.8,897.7L584.8,897.7z"/>
<path class="st3" d="M584.8,658.7H562c-1.2,0-2.1-1-2.1-2.1s1-2.1,2.1-2.1h22.8c1.2,0,2.1,1,2.1,2.1S585.9,658.7,584.8,658.7
	L584.8,658.7z"/>
<path class="st3" d="M584.8,914.7H562c-0.8,0-1.6-0.3-2-1c-0.4-0.7-0.4-1.5,0-2.2c0.4-0.7,1.2-1.1,2-1h22.8c1.1,0.1,2,1,2,2.1
	C586.8,913.7,585.9,914.7,584.8,914.7L584.8,914.7z"/>
<path class="st4" d="M152.2,288.4c0,0,1.3,36.4,23,45.4c0,0-62.4,45.8-85.2,28.8c0,0-41.1-30.5-28.7-56.8
	C61.2,305.9,123.9,317,152.2,288.4z"/>
<path class="st3" d="M103.1,368.5c-5.5,0-10.5-1.2-14.4-4.2c-1.7-1.3-42.4-31.9-29.4-59.4c0.4-0.9,1.4-1.4,2.3-1.2
	c0.6,0.1,61.9,10.6,89.1-16.9c0.6-0.6,1.5-0.8,2.3-0.5c0.8,0.3,1.3,1.1,1.4,1.9c0,0.4,1.5,35.2,21.6,43.5c0.7,0.3,1.2,0.9,1.3,1.7
	c0.1,0.8-0.2,1.5-0.8,2C174.2,337.1,131.1,368.5,103.1,368.5z M62.5,308.3c-9.3,24,28.3,52.4,28.7,52.7
	c18.7,13.9,67.4-18.2,79.8-26.8c-15.5-9-19.5-31.5-20.6-41.2C123,316.1,72.5,309.8,62.5,308.3z"/>
<path class="st3" d="M90,328c5.4-8.8,5.4,1.8,7.7,4.8c2.3,3,9.2,3.7,12.6,4.5c4.1,1,8.2,1.7,12.3,0.4c6.3-2.1,9.8-9.3,16.8-10.1
	c2.7-0.3,2.7-4.6,0-4.3c-5.5,0.6-8.3,3.3-12.5,6.6c-6,4.5-14,5.2-20.7,1.9c-10.3-5.2-2.5-3.4-5.3-8.3c-4.3-7.4-10.6-4.1-14.6,2.3
	C84.9,328.2,88.6,330.4,90,328z"/>
<path class="st4" d="M567.7,104.7c0,0,56.9,5.7,74-5.7c0,0,5.7,74,45.5,79.7c0,0-68.3,11.4-74,17.1
	C613.2,195.7,567.7,173,567.7,104.7z"/>
<path class="st3" d="M613.2,197.9c-0.3,0-0.7-0.1-1-0.2c-0.5-0.2-46.7-24.1-46.7-92.9c0-0.6,0.2-1.2,0.7-1.6
	c0.5-0.4,1.1-0.6,1.7-0.5c0.6,0.1,56.3,5.5,72.6-5.3c0.6-0.4,1.4-0.5,2.1-0.2c0.7,0.3,1.1,1,1.2,1.8c0.1,0.7,6,72.3,43.7,77.7
	c1,0.2,1.8,1.1,1.8,2.1c0,1.1-0.8,1.9-1.8,2.1c-32.8,5.5-69.4,13.1-72.8,16.5C614.3,197.6,613.8,197.8,613.2,197.9z M569.9,107.1
	c0.9,58.7,36.6,82.3,43.2,86.2c8.7-4.9,45.7-11.8,64.5-15.1c-28.9-12.8-36.3-62.2-37.8-75.7C622,110.9,580.4,108,569.9,107.1z"/>
<path class="st3" d="M594.4,134.3c1.6-1.4,22.9-16.5,23.1-5.7c0,3.1-12.7,8.9-15.2,10.3s-8.6,4.6-6.4,8.5c2,3.7,8.2,1,10.9,0.2
	c3-0.9,5.8-2,8.9-2.4c4.7-0.5,4.8-1.1,4.1,3.3c-0.7,4.1-3,7.6-3.4,11.8c0,0.8,0.4,1.5,1.1,1.8c3.3,1.9,5.2,0.5,9-0.8
	c5-1.7,17.1-3.9,20.3-8.1c-1.7,2.2,2.1,4.3,3.7,2.2l0.8-1c0.4-0.7,0.4-1.5,0-2.2c-1.9-3.6-4.8-2.5-8.1-1.4
	c-5.3,1.7-10.5,3.8-15.8,5.7c-3.8,1.4-5.5,3.9-5.5-0.7c0-1.9,1.5-4.4,2.1-6.2c4.4-13.9-10.1-7.5-18.3-6.2c-6.8,1.1,0.7-1.9,3.4-3.4
	c3.2-1.8,6.2-3.8,9-6.1c2.9-2.6,7.3-6.8,5.2-11.2c-5.3-10.9-26.8,4.4-31.8,8.5C589.4,133.1,592.4,136.1,594.4,134.3L594.4,134.3z"/>
<path class="st4" d="M818.1,536c0,0,58-12.8,79.5-44.3c0,0,33.8,72.4,67.5,86.1l-74,54.2C891.1,632.1,836.4,603.9,818.1,536z"/>
<path class="st3" d="M891.1,634.2c-0.3,0-0.7-0.1-1-0.2c-0.5-0.3-55.8-29.4-74.1-97.4c-0.2-0.6-0.1-1.2,0.2-1.7s0.8-0.9,1.4-1
	c0.6-0.1,57.4-12.9,78.2-43.4c0.4-0.6,1.2-1,1.9-0.9c0.8,0.1,1.4,0.5,1.8,1.2c0.3,0.7,33.8,71.8,66.4,85.1c0.7,0.3,1.2,1,1.3,1.7
	c0.1,0.8-0.2,1.5-0.8,2l-74,54.2C892,634,891.6,634.2,891.1,634.2z M820.7,537.5c16.9,59.4,62.4,87.6,70.2,92l70-51.3
	c-29.2-15-56.9-68.5-63.7-82.4C876.5,522.5,831.4,534.9,820.7,537.5z"/>
<path class="st3" d="M863.7,563.2c5.2,12.8,10,25.8,14.2,38.9c0.3,1,1.3,1.7,2.3,1.5c1-0.1,1.8-1,1.8-2.1c0.2-3.4-0.7-16.3,2.1-18.7
	c-0.6,0.5,3-0.2,3.5-0.4c1.8-0.6,3.4-1.7,4.7-3.1c4.3-4.1,5.4-8.4,11.1-11.7c3-1.7,5-2.3,6.5-5.5c1.2-2.5-2.5-4.6-3.7-2.2
	c-2,4-8.1,4.9-11.2,8.1c-2.3,2.4-3.3,6.2-5.8,8.3c-2.1,1.7-5.5,1-7.4,2.1c-1.8,1.1-2.2,2.1-2.8,4c-1.6,5.8-1,13.1-1.4,19l4.2-0.6
	c-4.2-13.2-8.9-26.1-14.1-38.9C866.8,559.5,862.6,560.6,863.7,563.2z"/>
<path class="st4" d="M731.9,683.3c0,0-0.9-1.6-2.2-4.3c-5.8-11.7-20.2-43.5-6.3-46.9C740.5,627.8,731.9,683.3,731.9,683.3z"/>
<path class="st3" d="M731.9,685.4c-0.8,0-1.5-0.4-1.9-1.1c0,0-0.9-1.6-2.2-4.3c-6.2-12.4-15.8-34.7-11.2-44.8
	c1.2-2.6,3.5-4.5,6.2-5.2c2.7-0.8,5.5-0.1,7.6,1.8c9.8,9,4.3,47.5,3.6,51.8c-0.1,0.9-0.8,1.6-1.7,1.8
	C732.2,685.4,732,685.4,731.9,685.4z M725.2,634c-0.4,0-0.9,0.1-1.3,0.2c-1.5,0.3-2.8,1.4-3.4,2.8c-2.7,6,1.1,20.5,10.2,39.2
	c1.5-13.7,2.7-36-3.1-41.3C726.9,634.3,726.1,634,725.2,634z"/>
<path class="st4" d="M576.9,606.5c0,0,1-1.5,2.7-4c7.4-10.7,28.3-38.7,38.1-28.1C629.6,587.3,576.9,606.5,576.9,606.5z"/>
<path class="st3" d="M576.9,608.7c-0.8,0-1.5-0.4-1.9-1.1c-0.4-0.7-0.3-1.5,0.1-2.2c0,0,1-1.6,2.7-4c7.9-11.4,22.8-30.6,33.9-31.4
	c2.8-0.2,5.6,0.9,7.5,3c2,2,2.8,4.8,2.1,7.5c-3.1,13-39.6,26.6-43.7,28.1C577.3,608.7,577.1,608.7,576.9,608.7z M612.4,574.2H612
	c-6.5,0.5-17.5,10.8-29.5,27.8c12.7-5.2,32.8-15,34.7-22.6c0.3-1.3-0.1-2.7-1.1-3.6C615.2,574.8,613.8,574.2,612.4,574.2z"/>
</svg>
